HIERARCHY
ROOT Hips
{
  OFFSET 0.000000 0.000000 0.000000
  CHANNELS 6 Xposition Yposition Zposition Zrotation Xrotation Yrotation
  JOINT Spine
  {
    OFFSET 0.000000 10.000000 0.000000
    CHANNELS 3 Zrotation Xrotation Yrotation
    JOINT Chest
    {
      OFFSET 0.000000 15.000000 0.000000
      CHANNELS 3 Zrotation Xrotation Yrotation
      JOINT Neck
      {
        OFFSET 0.000000 15.000000 0.000000
        CHANNELS 3 Zrotation Xrotation Yrotation
        JOINT Head
        {
          OFFSET 0.000000 10.000000 0.000000
          CHANNELS 3 Zrotation Xrotation Yrotation
          End Site
          {
            OFFSET 0.0 0.0 0.0
          }
        }
      }
      JOINT LeftShoulder
      {
        OFFSET 20.000000 15.000000 0.000000
        CHANNELS 3 Zrotation Xrotation Yrotation
        JOINT LeftArm
        {
          OFFSET 15.000000 0.000000 0.000000
          CHANNELS 3 Zrotation Xrotation Yrotation
          JOINT LeftForeArm
          {
            OFFSET 25.000000 0.000000 0.000000
            CHANNELS 3 Zrotation Xrotation Yrotation
            JOINT LeftHand
            {
              OFFSET 20.000000 0.000000 0.000000
              CHANNELS 3 Zrotation Xrotation Yrotation
              End Site
              {
                OFFSET 0.0 0.0 0.0
              }
            }
          }
        }
      }
      JOINT RightShoulder
      {
        OFFSET -20.000000 15.000000 0.000000
        CHANNELS 3 Zrotation Xrotation Yrotation
        JOINT RightArm
        {
          OFFSET -15.000000 0.000000 0.000000
          CHANNELS 3 Zrotation Xrotation Yrotation
          JOINT RightForeArm
          {
            OFFSET -25.000000 0.000000 0.000000
            CHANNELS 3 Zrotation Xrotation Yrotation
            JOINT RightHand
            {
              OFFSET -20.000000 0.000000 0.000000
              CHANNELS 3 Zrotation Xrotation Yrotation
              End Site
              {
                OFFSET 0.0 0.0 0.0
              }
            }
          }
        }
      }
    }
  }
  JOINT LeftUpLeg
  {
    OFFSET 10.000000 -10.000000 0.000000
    CHANNELS 3 Zrotation Xrotation Yrotation
    JOINT LeftLeg
    {
      OFFSET 0.000000 -45.000000 0.000000
      CHANNELS 3 Zrotation Xrotation Yrotation
      JOINT LeftFoot
      {
        OFFSET 0.000000 -45.000000 0.000000
        CHANNELS 3 Zrotation Xrotation Yrotation
        JOINT LeftToeBase
        {
          OFFSET 0.000000 0.000000 10.000000
          CHANNELS 3 Zrotation Xrotation Yrotation
          End Site
          {
            OFFSET 0.0 0.0 0.0
          }
        }
      }
    }
  }
  JOINT RightUpLeg
  {
    OFFSET -10.000000 -10.000000 0.000000
    CHANNELS 3 Zrotation Xrotation Yrotation
    JOINT RightLeg
    {
      OFFSET 0.000000 -45.000000 0.000000
      CHANNELS 3 Zrotation Xrotation Yrotation
      JOINT RightFoot
      {
        OFFSET 0.000000 -45.000000 0.000000
        CHANNELS 3 Zrotation Xrotation Yrotation
        JOINT RightToeBase
        {
          OFFSET 0.000000 0.000000 10.000000
          CHANNELS 3 Zrotation Xrotation Yrotation
          End Site
          {
            OFFSET 0.0 0.0 0.0
          }
        }
      }
    }
  }
}
MOTION
Frames: 10
Frame Time: 0.033333
17.752155 -0.387398 3.754003 0.000000 0.000000 0.000000 0.000000 0.000000 0.000000 0.000000 0.000000 0.000000 0.000000 0.000000 0.000000 0.000000 0.000000 0.000000 -13.639397 0.279564 -2.337338 -16.652980 1.289565 -8.794191 1.767392 -0.231831 -14.944633 1.767392 -0.231831 -14.944633 30.803491 -2.521039 -9.133571 30.251379 -6.313672 -23.064917 40.226218 -19.566950 -50.427877 40.226218 -19.566950 -50.427877 1.085056 -31.774863 0.308838 -26.311710 -32.531078 -7.802647 105.823467 154.257071 33.636811 105.823467 154.257071 33.636811 -4.184281 -6.265045 -0.229096 -7.879245 -27.911951 -1.960987 -15.018888 124.870400 -7.872732 -15.018888 124.870400 -7.872732
17.749170 -0.394947 3.637396 0.000000 0.000000 0.000000 0.000000 0.000000 0.000000 0.000000 0.000000 0.000000 0.000000 0.000000 0.000000 0.000000 0.000000 0.000000 -13.642964 0.199175 -1.664908 -16.838371 1.275715 -8.603309 1.840020 -0.237494 -14.707924 1.840020 -0.237494 -14.707924 30.883357 -2.583705 -9.334384 29.722722 -6.201578 -23.076410 39.308596 -19.046466 -50.320228 39.308596 -19.046466 -50.320228 1.112195 -31.816037 0.316995 -26.219598 -32.599493 -7.791652 105.951448 154.299959 33.655784 105.951448 154.299959 33.655784 -4.293430 -6.432023 -0.241356 -7.835266 -27.718704 -1.935968 -15.019118 124.952776 -7.859106 -15.019118 124.952776 -7.859106
17.743737 -0.401329 3.502999 0.000000 0.000000 0.000000 0.000000 0.000000 0.000000 0.000000 0.000000 0.000000 0.000000 0.000000 0.000000 0.000000 0.000000 0.000000 -13.667627 0.174816 -1.458651 -17.054195 1.301998 -8.667584 1.882151 -0.245622 -14.868944 1.882151 -0.245622 -14.868944 31.134838 -2.328344 -8.343909 28.170513 -5.412854 -21.338900 36.427042 -16.383949 -47.259378 36.427042 -16.383949 -47.259378 1.079363 -31.904436 0.308537 -26.066942 -32.730001 -7.777477 106.005959 154.038757 34.021183 106.005959 154.038757 34.021183 -4.394666 -6.596386 -0.253380 -7.843187 -27.506945 -1.922542 -15.145352 124.962336 -7.924113 -15.145352 124.962336 -7.924113
17.742061 -0.407553 3.401974 0.000000 0.000000 0.000000 0.000000 0.000000 0.000000 0.000000 0.000000 0.000000 0.000000 0.000000 0.000000 0.000000 0.000000 0.000000 -13.835653 0.191481 -1.578099 -17.287492 1.366992 -8.974404 1.966206 -0.262244 -15.192626 1.966206 -0.262244 -15.192626 31.658943 -2.262738 -7.968841 26.173369 -4.831703 -20.573278 32.536920 -14.115432 -45.978601 32.536920 -14.115432 -45.978601 1.041564 -32.022094 0.298889 -25.918391 -32.877739 -7.768515 106.293478 153.814330 34.477008 106.293478 153.814330 34.477008 -4.538799 -7.095659 -0.281555 -7.843985 -27.269054 -1.905465 -15.125053 125.199625 -7.873580 -15.125053 125.199625 -7.873580
17.737970 -0.417060 3.266957 0.000000 0.000000 0.000000 0.000000 0.000000 0.000000 0.000000 0.000000 0.000000 0.000000 0.000000 0.000000 0.000000 0.000000 0.000000 -14.061414 0.181130 -1.468601 -17.463692 1.360026 -8.837745 2.057611 -0.269443 -14.919233 2.057611 -0.269443 -14.919233 31.734866 -2.201334 -7.733736 24.467813 -4.461507 -20.369442 24.191916 -10.611111 -46.856642 24.191916 -10.611111 -46.856642 1.052503 -32.150141 0.303301 -25.838268 -32.961249 -7.764473 106.101158 153.643038 34.582852 106.101158 153.643038 34.582852 -4.750236 -7.770273 -0.322785 -7.788314 -27.109324 -1.880397 -15.056535 125.332573 -7.815437 -15.056535 125.332573 -7.815437
17.736389 -0.420815 3.159251 0.000000 0.000000 0.000000 0.000000 0.000000 0.000000 0.000000 0.000000 0.000000 0.000000 0.000000 0.000000 0.000000 0.000000 0.000000 -14.207763 0.215418 -1.728396 -17.541402 1.410635 -9.124203 2.235503 -0.298944 -15.231588 2.235503 -0.298944 -15.231588 32.039616 -2.013389 -7.004358 22.915681 -3.947595 -19.299530 18.783982 -8.094483 -46.319560 18.783982 -8.094483 -46.319560 1.056909 -32.256536 0.305634 -25.788372 -33.012673 -7.761753 105.376465 153.370687 34.502111 105.376465 153.370687 34.502111 -4.988815 -7.991671 -0.348707 -7.709703 -26.893784 -1.846006 -14.967340 125.343234 -7.766983 -14.967340 125.343234 -7.766983
17.734860 -0.424256 3.088286 0.000000 0.000000 0.000000 0.000000 0.000000 0.000000 0.000000 0.000000 0.000000 0.000000 0.000000 0.000000 0.000000 0.000000 0.000000 -14.315229 0.243372 -1.937836 -17.600539 1.445416 -9.316445 2.354051 -0.318539 -15.410288 2.354051 -0.318539 -15.410288 32.190286 -1.966115 -6.806584 22.011307 -3.742305 -19.071144 16.389515 -7.078620 -46.486725 16.389515 -7.078620 -46.486725 1.065939 -32.324991 0.308936 -25.740580 -33.029709 -7.751134 104.785703 153.143312 34.441807 104.785703 153.143312 34.441807 -5.145521 -8.103210 -0.364711 -7.661616 -26.798920 -1.827748 -14.907434 125.356431 -7.733460 -14.907434 125.356431 -7.733460
17.736682 -0.427656 3.025618 0.000000 0.000000 0.000000 0.000000 0.000000 0.000000 0.000000 0.000000 0.000000 0.000000 0.000000 0.000000 0.000000 0.000000 0.000000 -14.385130 0.253046 -2.004959 -17.763266 1.455092 -9.291635 2.527012 -0.346783 -15.625384 2.527012 -0.346783 -15.625384 32.163106 -1.566215 -5.429114 20.743963 -3.236775 -17.550673 13.282177 -5.626193 -45.762427 13.282177 -5.626193 -45.762427 1.126801 -32.316878 0.326489 -25.623354 -33.040448 -7.717382 104.239758 152.665436 34.717215 104.239758 152.665436 34.717215 -5.276571 -8.037812 -0.370984 -7.591474 -26.772741 -1.809133 -14.910025 125.356123 -7.734866 -14.910025 125.356123 -7.734866
17.736213 -0.431116 3.018616 0.000000 0.000000 0.000000 0.000000 0.000000 0.000000 0.000000 0.000000 0.000000 0.000000 0.000000 0.000000 0.000000 0.000000 0.000000 -14.498664 0.250610 -1.969951 -18.254577 1.404352 -8.724545 2.305525 -0.313534 -15.486539 2.305525 -0.313534 -15.486539 32.821038 -1.632103 -5.537713 19.318211 -3.090639 -18.013559 11.611036 -4.982721 -46.335724 11.611036 -4.982721 -46.335724 1.128230 -32.289549 0.326612 -25.648242 -32.993025 -7.713420 104.728314 152.788469 34.851908 104.728314 152.788469 34.851908 -5.335138 -8.035153 -0.374984 -7.577842 -26.753323 -1.804517 -14.922725 125.343045 -7.743670 -14.922725 125.343045 -7.743670
17.736065 -0.433316 3.016211 0.000000 0.000000 0.000000 0.000000 0.000000 0.000000 0.000000 0.000000 0.000000 0.000000 0.000000 0.000000 0.000000 0.000000 0.000000 -14.757550 0.257832 -1.990773 -18.570871 1.440453 -8.793526 1.917753 -0.259910 -15.434979 1.917753 -0.259910 -15.434979 33.105561 -1.778899 -5.980256 18.339348 -3.002914 -18.446196 9.052618 -3.919346 -46.749848 9.052618 -3.919346 -46.749848 1.160130 -32.282680 0.335772 -25.584544 -33.040078 -7.705240 106.434585 152.935149 35.689083 106.434585 152.935149 35.689083 -5.447367 -7.976904 -0.380099 -7.525456 -26.754221 -1.792071 -14.818068 125.326103 -7.691693 -14.818068 125.326103 -7.691693
